HIERARCHY
ROOT Pelvis
{
	OFFSET 0.000000 0.941512 0.000000
	CHANNELS 6 Xposition Yposition Zposition Zrotation Yrotation Xrotation 
	JOINT Pelvis_L_Hip
	{
		OFFSET 0.000000 0.000000 0.000000
		CHANNELS 3 Zrotation Yrotation Xrotation
		JOINT L_Hip
		{
			OFFSET 0.062321 -0.080322 -0.016990
			CHANNELS 3 Zrotation Yrotation Xrotation
			JOINT L_Knee
			{
				OFFSET 0.093051 -0.381305 -0.029784
				CHANNELS 3 Zrotation Yrotation Xrotation
				JOINT L_Ankle
				{
					OFFSET -0.010371 -0.431000 -0.033614
					CHANNELS 3 Zrotation Yrotation Xrotation
					End Site #name: L_Foot
					{
						OFFSET 0.069299 -0.038670 0.119418
					}
				}
			}
		}
	}
	JOINT Pelvis_R_Hip
	{
		OFFSET 0.000000 0.000000 0.000000
		CHANNELS 3 Zrotation Yrotation Xrotation
		JOINT R_Hip
		{
			OFFSET -0.055334 -0.094904 -0.002373
			CHANNELS 3 Zrotation Yrotation Xrotation
			JOINT R_Knee
			{
				OFFSET -0.064207 -0.384370 -0.019592
				CHANNELS 3 Zrotation Yrotation Xrotation
				JOINT R_Ankle
				{
					OFFSET 0.025418 -0.419734 -0.065953
					CHANNELS 3 Zrotation Yrotation Xrotation
					End Site #name: R_Foot
					{
						OFFSET -0.057233 -0.039888 0.132134
					}
				}
			}
		}
	}
	JOINT Pelvis_Spine1
	{
		OFFSET 0.000000 0.000000 0.000000
		CHANNELS 3 Zrotation Yrotation Xrotation
		JOINT Spine1
		{
			OFFSET -0.005562 0.124093 -0.043360
			CHANNELS 3 Zrotation Yrotation Xrotation
			JOINT Spine2
			{
				OFFSET 0.012244 0.139499 0.029894
				CHANNELS 3 Zrotation Yrotation Xrotation
				JOINT Spine3
				{
					OFFSET -0.002556 0.056561 0.009225
					CHANNELS 3 Zrotation Yrotation Xrotation
					JOINT Spine3_Neck
					{
						OFFSET 0.000000 0.000000 0.000000
						CHANNELS 3 Zrotation Yrotation Xrotation
						JOINT Neck
						{
							OFFSET -0.005205 0.217920 -0.024551
							CHANNELS 3 Zrotation Yrotation Xrotation
							End Site #name: Head
							{
								OFFSET 0.002365 0.091850 0.046637
							}
						}
					}
					JOINT Spine3_L_Collar
					{
						OFFSET 0.000000 0.000000 0.000000
						CHANNELS 3 Zrotation Yrotation Xrotation
						JOINT L_Collar
						{
							OFFSET 0.072225 0.116603 -0.009480
							CHANNELS 3 Zrotation Yrotation Xrotation
							JOINT L_Shoulder
							{
								OFFSET 0.115937 -0.058643 -0.021018
								CHANNELS 3 Zrotation Yrotation Xrotation
								JOINT L_Elbow
								{
									OFFSET 0.021994 -0.254722 -0.024492
									CHANNELS 3 Zrotation Yrotation Xrotation
									End Site #name: L_Wrist
									{
										OFFSET 0.048810 -0.240214 0.103329
									}
								}
							}
						}
					}
					JOINT Spine3_R_Collar
					{
						OFFSET 0.000000 0.000000 0.000000
						CHANNELS 3 Zrotation Yrotation Xrotation
						JOINT R_Collar
						{
							OFFSET -0.073372 0.120704 -0.024611
							CHANNELS 3 Zrotation Yrotation Xrotation
							JOINT R_Shoulder
							{
								OFFSET -0.108089 -0.054969 -0.020504
								CHANNELS 3 Zrotation Yrotation Xrotation
								JOINT R_Elbow
								{
									OFFSET -0.033684 -0.260739 0.009889
									CHANNELS 3 Zrotation Yrotation Xrotation
									End Site #name: R_Wrist
									{
										OFFSET -0.067980 -0.232763 0.118463
									}
								}
							}
						}
					}
				}
			}
		}
	}
}
MOTION
Frames: 14
Frame Time: 0.041667
0.000000 0.945786 0.000000 -4.726104 -4.505899 5.831147 0.000000 0.000000 0.000000 1.522311 -2.810003 -11.973311 -2.706021 0.244204 5.781254 0.144366 -6.157934 -3.526151 0.000000 0.000000 0.000000 3.121947 2.628852 -14.178996 5.319080 -0.608489 10.119466 3.088013 5.450194 2.924940 0.000000 0.000000 0.000000 5.236198 -0.526530 -4.989380 -1.969852 0.129770 -3.114954 1.830119 3.442629 -2.081799 0.000000 0.000000 0.000000 1.903832 -1.233938 5.948245 0.000000 0.000000 0.000000 17.106812 -5.088944 -0.302092 -25.617110 2.973759 1.524072 1.864047 0.177382 -3.348832 0.000000 0.000000 0.000000 -25.953129 14.236960 -6.384748 29.983707 -2.154225 8.412833 4.149716 5.815344 -10.265301 
-0.000059 0.945720 0.000162 -4.729434 -4.495178 5.850168 0.000000 0.000000 0.000000 1.540951 -2.811594 -11.983163 -2.719405 0.246031 5.782170 0.143007 -6.163831 -3.526409 0.000000 0.000000 0.000000 3.131872 2.627252 -14.168659 5.297785 -0.604246 10.090761 3.110512 5.468117 2.958742 0.000000 0.000000 0.000000 5.275714 -0.538500 -4.954108 -2.036341 0.129029 -3.277972 1.832159 3.464664 -1.939787 0.000000 0.000000 0.000000 1.886630 -1.214400 5.716959 0.000000 0.000000 0.000000 17.119509 -5.017034 -0.244618 -25.629234 2.951069 1.434047 1.797669 0.158024 -3.287231 0.000000 0.000000 0.000000 -25.960864 14.234182 -6.387940 30.007049 -2.145491 8.373821 4.165470 5.820799 -10.252947 
-0.000092 0.945710 0.000317 -4.723509 -4.483989 5.873790 0.000000 0.000000 0.000000 1.538047 -2.815950 -12.001651 -2.716972 0.245547 5.781779 0.142536 -6.167645 -3.527270 0.000000 0.000000 0.000000 3.131106 2.628237 -14.174586 5.284839 -0.601652 10.077422 3.123879 5.477018 2.980046 0.000000 0.000000 0.000000 5.297221 -0.546468 -4.925524 -2.077293 0.127008 -3.402993 1.833713 3.491393 -1.862048 0.000000 0.000000 0.000000 1.855910 -1.192450 5.599581 0.000000 0.000000 0.000000 17.133149 -4.945215 -0.187736 -25.634640 2.944478 1.401738 1.745099 0.139012 -3.256546 0.000000 0.000000 0.000000 -25.976627 14.235691 -6.393126 30.024723 -2.147237 8.366227 4.183682 5.829500 -10.243420 
-0.000221 0.945677 0.000509 -4.714162 -4.466480 5.891161 0.000000 0.000000 0.000000 1.537600 -2.817411 -12.008523 -2.716335 0.245425 5.781111 0.141854 -6.173993 -3.528716 0.000000 0.000000 0.000000 3.130719 2.627785 -14.173448 5.277552 -0.600409 10.071679 3.127690 5.481893 2.985180 0.000000 0.000000 0.000000 5.303595 -0.549533 -4.910940 -2.102621 0.125777 -3.479210 1.837446 3.517202 -1.816712 0.000000 0.000000 0.000000 1.828546 -1.174396 5.524848 0.000000 0.000000 0.000000 17.144113 -4.901608 -0.150192 -25.630103 2.938250 1.379133 1.731705 0.137452 -3.234597 0.000000 0.000000 0.000000 -25.979773 14.235215 -6.399571 30.021581 -2.151874 8.370353 4.195118 5.832885 -10.231719 
-0.000383 0.945639 0.000693 -4.703683 -4.438823 5.913769 0.000000 0.000000 0.000000 1.534641 -2.820320 -12.020228 -2.709253 0.244214 5.772716 0.137891 -6.189160 -3.528516 0.000000 0.000000 0.000000 3.129470 2.627251 -14.172698 5.271139 -0.599695 10.059786 3.127216 5.478761 2.987122 0.000000 0.000000 0.000000 5.296265 -0.549566 -4.901770 -2.125848 0.124296 -3.554582 1.847210 3.538920 -1.764471 0.000000 0.000000 0.000000 1.810335 -1.161358 5.443025 0.000000 0.000000 0.000000 17.151270 -4.859230 -0.114508 -25.620121 2.926895 1.343491 1.717691 0.127538 -3.251135 0.000000 0.000000 0.000000 -25.974796 14.232603 -6.403605 30.024540 -2.161154 8.386656 4.201073 5.840124 -10.243464 
-0.000630 0.945637 0.000847 -4.696201 -4.414701 5.938494 0.000000 0.000000 0.000000 1.542058 -2.823416 -12.034691 -2.705562 0.243512 5.757703 0.131645 -6.205665 -3.525118 0.000000 0.000000 0.000000 3.130934 2.628390 -14.179071 5.274029 -0.601146 10.047215 3.126863 5.473917 2.990247 0.000000 0.000000 0.000000 5.285811 -0.548438 -4.896985 -2.143847 0.123155 -3.612398 1.858419 3.552456 -1.712928 0.000000 0.000000 0.000000 1.803286 -1.154586 5.367729 0.000000 0.000000 0.000000 17.150177 -4.829194 -0.089321 -25.618471 2.919854 1.314292 1.704924 0.121555 -3.251825 0.000000 0.000000 0.000000 -25.959273 14.222501 -6.400651 30.014761 -2.165347 8.388953 4.210875 5.848888 -10.251227 
-0.001163 0.945673 0.000919 -4.690428 -4.339307 5.972482 0.000000 0.000000 0.000000 1.595868 -2.828656 -12.064053 -2.712725 0.243809 5.713254 0.075603 -6.305213 -3.474825 0.000000 0.000000 0.000000 3.174733 2.619373 -14.124132 5.250835 -0.600023 9.918729 3.151222 5.422295 3.073166 0.000000 0.000000 0.000000 5.300728 -0.549819 -4.906505 -2.232181 0.123664 -3.792052 1.928441 3.576338 -1.428500 0.000000 0.000000 0.000000 1.752886 -1.108639 4.933764 0.000000 0.000000 0.000000 17.045237 -4.778349 -0.058919 -25.508547 2.860364 1.140260 1.738160 0.142575 -3.224327 0.000000 0.000000 0.000000 -25.693653 14.104018 -6.322158 29.753647 -2.219361 8.515268 4.100154 6.054596 -10.985413 
-0.001364 0.945722 0.000653 -4.687968 -4.353679 6.052136 0.000000 0.000000 0.000000 1.598125 -2.840405 -12.118197 -2.694524 0.241559 5.741915 0.059345 -6.320362 -3.454997 0.000000 0.000000 0.000000 3.156624 2.619639 -14.132542 5.220504 -0.593798 9.860508 3.287497 5.471539 3.311890 0.000000 0.000000 0.000000 5.045775 -0.490402 -5.012666 -2.042820 0.113174 -3.558312 2.146106 3.613644 -1.264814 0.000000 0.000000 0.000000 1.648790 -1.021087 4.272180 0.000000 0.000000 0.000000 17.130451 -4.685756 0.021149 -25.973415 2.800701 0.771388 2.027508 0.253280 -3.348014 0.000000 0.000000 0.000000 -25.680632 13.813330 -6.067811 28.820979 -2.507402 9.313356 4.374726 8.199830 -15.967841 
-0.001502 0.945942 -0.000374 -4.695849 -4.344635 6.227914 0.000000 0.000000 0.000000 1.589311 -2.859304 -12.205699 -2.679620 0.239968 5.787463 0.059951 -6.331646 -3.461941 0.000000 0.000000 0.000000 3.081820 2.623319 -14.177692 5.216319 -0.595706 9.745807 3.419551 5.464732 3.577858 0.000000 0.000000 0.000000 4.754100 -0.414424 -5.203202 -1.702210 0.088620 -3.206511 2.502228 3.591583 -0.815893 0.000000 0.000000 0.000000 1.530491 -0.919608 3.427483 0.000000 0.000000 0.000000 16.979907 -4.370153 0.220508 -26.262916 2.732084 0.398151 1.983691 0.123882 -3.931675 0.000000 0.000000 0.000000 -25.498782 12.787350 -5.174671 24.889654 -2.674880 10.251141 7.192186 15.347994 -26.642767 
-0.001397 0.946365 -0.000838 -4.623896 -4.440066 6.063550 0.000000 0.000000 0.000000 1.240708 -2.711331 -11.489587 -2.244516 0.180531 4.920595 -0.770612 -5.890669 -1.821523 0.000000 0.000000 0.000000 3.195898 2.493028 -13.504718 4.681373 -0.489401 8.930198 3.681417 5.176595 4.271886 0.000000 0.000000 0.000000 4.361154 -0.344679 -5.193384 -1.039627 0.050654 -2.224550 2.636218 3.253856 -1.093483 0.000000 0.000000 0.000000 1.269336 -0.774640 3.504104 0.000000 0.000000 0.000000 16.504547 -4.769840 -0.181118 -26.249661 3.050012 1.381823 2.208481 -0.014597 -5.240579 0.000000 0.000000 0.000000 -25.778279 12.619091 -4.940717 19.437372 -2.333170 10.173829 7.485434 23.465335 -40.348505 
-0.001095 0.946362 -0.002045 -4.659536 -4.582210 6.100129 0.000000 0.000000 0.000000 1.212197 -2.685541 -11.372857 -2.183547 0.173498 4.763368 -0.873742 -5.753591 -1.577441 0.000000 0.000000 0.000000 3.131496 2.497019 -13.539924 4.679710 -0.489454 8.824885 3.813301 5.335024 4.423660 0.000000 0.000000 0.000000 4.597838 -0.395308 -5.137459 -0.891837 0.037214 -2.077538 2.613807 2.927208 -0.956219 0.000000 0.000000 0.000000 1.549707 -0.922379 3.510817 0.000000 0.000000 0.000000 16.290768 -5.008971 -0.423894 -25.706890 3.293971 2.269015 1.456786 -0.504607 -5.882464 0.000000 0.000000 0.000000 -26.933426 12.171323 -4.379196 14.971766 -1.305737 7.190891 3.319500 27.767806 -54.470661 
-0.000580 0.946327 -0.003527 -4.563288 -4.731216 6.207445 0.000000 0.000000 0.000000 1.056960 -2.702428 -11.434312 -2.156094 0.170851 4.725150 -0.913227 -5.629050 -1.448086 0.000000 0.000000 0.000000 2.940254 2.512974 -13.674565 4.638130 -0.479624 8.747070 3.953916 5.479757 4.599738 0.000000 0.000000 0.000000 4.769516 -0.402027 -5.338124 -0.565018 0.007020 -1.734918 2.233809 2.536428 -0.925934 0.000000 0.000000 0.000000 1.870143 -1.075336 3.128297 0.000000 0.000000 0.000000 16.165367 -5.485153 -0.821962 -25.394500 3.390982 2.660740 1.540415 -0.364497 -5.375700 0.000000 0.000000 0.000000 -27.646027 11.885913 -3.976823 10.873700 0.137924 1.291223 -5.880287 23.871830 -69.200348 
-0.000011 0.946395 -0.005029 -4.483284 -4.929642 6.323963 0.000000 0.000000 0.000000 0.927173 -2.753191 -11.650761 -2.120971 0.167325 4.841728 -0.926749 -5.462385 -1.341713 0.000000 0.000000 0.000000 2.770384 2.556925 -13.941125 4.629685 -0.472467 8.811521 4.143046 5.669105 4.838317 0.000000 0.000000 0.000000 4.839419 -0.391639 -5.530908 -0.066059 -0.044433 -1.255072 1.728701 2.407403 -1.071597 0.000000 0.000000 0.000000 2.126979 -1.177997 2.364575 0.000000 0.000000 0.000000 16.254904 -5.971614 -1.176562 -25.540864 3.335184 2.436923 2.214479 0.121820 -4.525163 0.000000 0.000000 0.000000 -27.742359 12.206972 -4.216787 7.763192 1.576619 -6.353382 -16.499831 7.958457 -77.224917 
0.000778 0.946563 -0.006358 -4.444064 -5.066102 6.429723 0.000000 0.000000 0.000000 0.849162 -2.822187 -11.953034 -2.043968 0.157849 5.046010 -0.929615 -5.390925 -1.301348 0.000000 0.000000 0.000000 2.611480 2.583300 -14.120043 4.732902 -0.495378 8.750255 4.286030 5.784408 5.035721 0.000000 0.000000 0.000000 4.922436 -0.412508 -5.497125 0.415920 -0.112220 -1.161780 1.132044 2.562763 -1.288423 0.000000 0.000000 0.000000 2.443417 -1.306290 1.516910 0.000000 0.000000 0.000000 16.525431 -6.091312 -1.217201 -25.920112 3.191812 1.882032 2.776402 0.483508 -3.999483 0.000000 0.000000 0.000000 -27.288798 12.838677 -4.848177 5.224903 3.068211 -16.006345 -26.656254 -13.026111 -72.831831 
